<?xml version="1.0" encoding="UTF-8"?>
<svg id="Layer_2" data-name="Layer 2" xmlns="http://www.w3.org/2000/svg" xmlns:xlink="http://www.w3.org/1999/xlink" viewBox="0 0 700 492.89">
  <defs>
    <style>
      .cls-1 {
        fill: url(#linear-gradient);
        stroke-width: 0px;
      }
    </style>
    <linearGradient id="linear-gradient" x1="0" y1="246.45" x2="700" y2="246.45" gradientUnits="userSpaceOnUse">
      <stop offset="0" stop-color="#1a5dff"/>
      <stop offset="1" stop-color="#02e5f8"/>
    </linearGradient>
  </defs>
  <g id="Logo_Horizontal" data-name="Logo Horizontal">
    <path class="cls-1" d="M567.22,164.43c-17.56-3.61-35.15-4.41-52.23-2.61-1.1-58.6-33.02-113.16-84.81-141.25C365.29-14.62,284.36-3.86,233.36,46.75c-30.26,30.03-47.9,72.07-49.1,115.37-4.1-.44-8.24-.74-12.42-.89-70.58-2.39-131.41,36.48-158.79,101.67l-.24.59c-35.99,92.85,9.18,170.25,69.9,205.77,25.16,14.72,55.22,23.64,86.29,23.63,43.62,0,89.21-17.63,125.99-61.43l.03.03.72-.89c.18-.21.36-.41.54-.62l-.02-.02,146.72-181.9,5.38-5.94c27.77-28.95,68.74-41.21,109.65-32.81,40.93,8.4,73.77,35.9,87.94,73.83,11.62,29.93,10.88,62.6-2.07,91.98-12.95,29.38-36.57,51.96-66.61,63.62-29.61,11.67-62.24,10.88-91.88-2.22-29.09-12.87-52.07-36.75-63.21-65.56l-31.72,39.31c17.35,29.71,44.18,53.88,76.41,68.13,21.67,9.58,44.53,14.39,67.33,14.39,20.26,0,40.47-3.79,59.76-11.4,41.34-16.04,73.95-47.23,91.84-87.8,17.89-40.57,18.9-85.68,2.95-126.75-19.63-52.53-65.06-90.81-121.53-102.4ZM468.93,173.67c-20.06,8.42-38.44,20.83-53.89,37.01l-6.44,7.1-148.32,183.82c-45.87,54.99-110.53,53.81-154.45,28.12-40.68-23.8-78.25-77.19-50.43-149.39,23.77-56.2,74.97-74.75,114.84-73.33,40.33,1.42,90.35,23.3,109.76,80.46l1.15-.39,31.52-39.07c-18.09-33.94-47.27-59.94-82.46-74.32-1.97-35.23,11.08-70.26,35.42-94.42,36.19-35.91,96.21-43.66,142.72-18.43,40.39,21.91,63.95,66.43,60.59,112.84Z"/>
  </g>
</svg>