<?xml version="1.0" encoding="UTF-8"?>
<svg id="Layer_2" data-name="Layer 2" xmlns="http://www.w3.org/2000/svg" xmlns:xlink="http://www.w3.org/1999/xlink" viewBox="0 0 110.92 110.92">
  <defs>
    <style>
      .cls-1 {
        fill: url(#linear-gradient);
      }

      .cls-1, .cls-2 {
        stroke-width: 0px;
      }

      .cls-2 {
        fill: #fff;
      }
    </style>
    <linearGradient id="linear-gradient" x1="55.46" y1="4.07" x2="55.46" y2="104.62" gradientUnits="userSpaceOnUse">
      <stop offset="0" stop-color="#1a5dff"/>
      <stop offset="1" stop-color="#02e5f8"/>
    </linearGradient>
  </defs>
  <g id="Layer_1-2" data-name="Layer 1">
    <g>
      <rect class="cls-1" width="110.92" height="110.92" rx="4.84" ry="4.84"/>
      <path class="cls-2" d="M80.34,46.06c-2.01-.41-4.03-.51-5.98-.3-.13-6.71-3.78-12.96-9.72-16.18-7.43-4.03-16.71-2.8-22.55,3-3.47,3.44-5.49,8.26-5.63,13.22-.47-.05-.94-.09-1.42-.1-8.09-.27-15.06,4.18-18.19,11.65l-.03.07c-4.12,10.64,1.05,19.51,8.01,23.57,2.88,1.69,6.33,2.71,9.89,2.71,5,0,10.22-2.02,14.43-7.04h0s.08-.1.08-.1c.02-.02.04-.05.06-.07h0s16.81-20.84,16.81-20.84l.62-.68c3.18-3.32,7.88-4.72,12.56-3.76,4.69.96,8.45,4.11,10.08,8.46,1.33,3.43,1.25,7.17-.24,10.54-1.48,3.37-4.19,5.95-7.63,7.29-3.39,1.34-7.13,1.25-10.53-.25-3.33-1.47-5.97-4.21-7.24-7.51l-3.63,4.5c1.99,3.4,5.06,6.17,8.75,7.81,2.48,1.1,5.1,1.65,7.71,1.65,2.32,0,4.64-.43,6.85-1.31,4.74-1.84,8.47-5.41,10.52-10.06,2.05-4.65,2.16-9.82.34-14.52-2.25-6.02-7.45-10.4-13.92-11.73ZM69.08,47.12c-2.3.96-4.4,2.39-6.17,4.24l-.74.81-16.99,21.06c-5.25,6.3-12.66,6.16-17.69,3.22-4.66-2.73-8.97-8.84-5.78-17.12,2.72-6.44,8.59-8.56,13.16-8.4,4.62.16,10.35,2.67,12.58,9.22l.13-.04,3.61-4.48c-2.07-3.89-5.42-6.87-9.45-8.51-.23-4.04,1.27-8.05,4.06-10.82,4.15-4.11,11.02-5,16.35-2.11,4.63,2.51,7.33,7.61,6.94,12.93Z"/>
    </g>
  </g>
</svg>